<svg xmlns="http://www.w3.org/2000/svg" aria-hidden="true" style="position:absolute;width:0;height:0;overflow:hidden">
  <defs>
    <symbol id="arrow-right" viewBox="0 0 32 32">
      <path d="m21.563 14.666-7.152-7.152 1.885-1.885L26.667 16 16.296 26.371l-1.885-1.885 7.152-7.152H5.334v-2.667h16.229z"/>
    </symbol>
    <symbol id="icon-check" viewBox="0 0 32 32">
      <path d="M13.333 20.229 25.589 7.972l1.887 1.885L13.333 24l-8.485-8.485 1.885-1.885 6.6 6.6z"/>
    </symbol>
    <symbol id="icon-close" viewBox="0 0 32 32">
      <path d="m16 14.115 6.6-6.6L24.485 9.4l-6.6 6.6 6.6 6.6-1.885 1.885-6.6-6.6-6.6 6.6L7.515 22.6l6.6-6.6-6.6-6.6L9.4 7.515l6.6 6.6z"/>
    </symbol>
    <symbol id="icon-testimonials" viewBox="0 0 32 32">
      <path d="M8.607 25.333 2.667 30V5.333a1.335 1.335 0 0 1 1.334-1.334h24a1.335 1.335 0 0 1 1.334 1.334V24a1.335 1.335 0 0 1-1.334 1.334H8.608z"/>
    </symbol>
    <symbol id="icon-contrast" viewBox="0 0 32 32">
      <path d="M16.533 28.8C9.169 28.8 3.2 22.831 3.2 15.467S9.169 2.134 16.533 2.134s13.333 5.969 13.333 13.333S23.897 28.8 16.533 28.8zm-8.894-7.433a10.678 10.678 0 0 0 7.823 4.689A10.664 10.664 0 0 0 25.656 9.957a10.656 10.656 0 0 0-3.223-3.385 11.996 11.996 0 0 1-3.071 11.725 11.992 11.992 0 0 1-11.723 3.072z"/>
    </symbol>
    <symbol id="icon-copy" viewBox="0 0 32 32">
      <path stroke-width="2.133" d="M1.067 1.067h19.2v19.2h-19.2v-19.2z"/>
      <path stroke-width="2.133" d="M11.733 11.733h19.2v19.2h-19.2v-19.2z"/>
    </symbol>
    <symbol id="icon-education" viewBox="0 0 32 32">
      <path d="m22.691 20.039-6.246 5.962-6.246-5.962c-4.682.194-8.42 3.85-8.42 8.363v.6c0 1.656 1.408 3 3.143 3H27.97c1.735 0 3.143-1.344 3.143-3v-.6c0-4.513-3.739-8.169-8.42-8.363zM2.668 4.989l.419.094v3.65c-.458.262-.786.719-.786 1.269 0 .525.301.963.727 1.231l-1.021 3.894c-.111.431.138.875.498.875h2.737c.36 0 .609-.444.498-.875l-1.021-3.894c.426-.269.727-.706.727-1.231 0-.55-.327-1.006-.786-1.269V5.446l4.321.994c-.563 1.075-.917 2.275-.917 3.563 0 4.419 3.752 8 8.381 8s8.381-3.581 8.381-8c0-1.287-.347-2.487-.917-3.563l6.305-1.45c1.192-.275 1.192-1.694 0-1.969L17.747.146a5.876 5.876 0 0 0-2.599 0L2.668 3.015c-1.185.275-1.185 1.7 0 1.975z"/>
    </symbol>
    <symbol id="icon-email" viewBox="0 0 32 32">
      <path d="M27.557 4.245H4.442A4.443 4.443 0 0 0-.001 8.688v14.624a4.443 4.443 0 0 0 4.443 4.443h23.115A4.443 4.443 0 0 0 32 23.312V8.688a4.443 4.443 0 0 0-4.443-4.443zM11.135 20.108l-6.221 5.308a1.044 1.044 0 1 1-1.356-1.59l6.221-5.308a1.044 1.044 0 1 1 1.356 1.59zM16 18.09a3.461 3.461 0 0 1-2.269-.824h.001l-.002-.002.002.001L4.186 8.98a1.045 1.045 0 0 1 1.369-1.579l9.548 8.287c.204.182.54.313.897.311.357.001.687-.127.903-.314l.005-.004 9.538-8.279a1.044 1.044 0 1 1 1.369 1.579l-9.548 8.287a3.47 3.47 0 0 1-2.267.821zm12.559 7.208a1.045 1.045 0 0 1-1.473.117l-6.221-5.308a1.045 1.045 0 0 1 1.356-1.59l6.221 5.308c.439.374.491 1.034.117 1.473z"/>
    </symbol>
    <symbol id="icon-facebook" viewBox="0 0 32 32">
      <path d="M18.666 18h3.333l1.333-5.333h-4.667V10c0-1.373 0-2.667 2.667-2.667h2v-4.48c-.435-.057-2.076-.187-3.809-.187-3.62 0-6.191 2.209-6.191 6.267v3.733h-4v5.333h4v11.333h5.333V17.999z"/>
    </symbol>
    <symbol id="icon-github" viewBox="0 0 32 32">
      <path d="M16 2.667C8.633 2.667 2.667 8.634 2.667 16c0 5.9 3.817 10.883 9.117 12.65.667.117.917-.283.917-.633 0-.317-.017-1.367-.017-2.483-3.35.617-4.217-.817-4.483-1.567-.15-.383-.8-1.567-1.367-1.883-.467-.25-1.133-.867-.017-.883 1.05-.017 1.8.967 2.05 1.367 1.2 2.017 3.117 1.45 3.883 1.1.117-.867.467-1.45.85-1.783-2.967-.333-6.067-1.483-6.067-6.583 0-1.45.517-2.65 1.367-3.583-.133-.333-.6-1.7.133-3.533 0 0 1.117-.35 3.667 1.367 1.067-.3 2.2-.45 3.333-.45s2.267.15 3.333.45c2.55-1.733 3.667-1.367 3.667-1.367.733 1.833.267 3.2.133 3.533.85.933 1.367 2.117 1.367 3.583 0 5.117-3.117 6.25-6.083 6.583.483.417.9 1.217.9 2.467 0 1.783-.017 3.217-.017 3.667 0 .35.25.767.917.633a13.356 13.356 0 0 0 9.083-12.65c0-7.367-5.967-13.333-13.333-13.333z"/>
    </symbol>
    <symbol id="icon-home" viewBox="0 0 32 32">
      <path d="M26.667 26.666a1.33 1.33 0 0 1-1.334 1.333H6.666a1.333 1.333 0 0 1-1.334-1.333v-12h-4L15.101 2.149a1.333 1.333 0 0 1 1.794 0l13.769 12.517h-4v12z"/>
    </symbol>
    <symbol id="icon-linkedin" viewBox="0 0 32 32">
      <path d="M9.253 6.667a2.667 2.667 0 1 1-5.334-.003 2.667 2.667 0 0 1 5.334.003zm.08 4.64H4V28h5.333V11.307zm8.427 0h-5.307V28h5.253v-8.76c0-4.88 6.36-5.333 6.36 0V28h5.267V17.427c0-8.227-9.413-7.92-11.627-3.88l.053-2.24z"/>
    </symbol>
    <symbol id="icon-location" viewBox="0 0 32 32">
      <path d="m2.667 6.667 9.333-4 8 4 8.404-3.601a.671.671 0 0 1 .63.057.67.67 0 0 1 .299.557v21.655l-9.333 4-8-4-8.404 3.601a.67.67 0 0 1-.85-.298.658.658 0 0 1-.079-.316V6.667zM20 26.352V9.568l-.087.037L12 5.648v16.784l.087-.037L20 26.352z"/>
    </symbol>
    <symbol id="icon-mail" viewBox="0 0 32 32">
      <path d="M4 4h24a1.335 1.335 0 0 1 1.334 1.334v21.333A1.335 1.335 0 0 1 28 28.001H4a1.335 1.335 0 0 1-1.334-1.334V5.334A1.335 1.335 0 0 1 4 4zm12.08 11.577-8.549-7.26-1.727 2.032 10.293 8.74 10.108-8.747-1.744-2.017-8.381 7.252z"/>
    </symbol>
    <symbol id="icon-mobile" viewBox="0 0 32 32">
      <path d="M8 2.667h16a1.335 1.335 0 0 1 1.334 1.334v24A1.335 1.335 0 0 1 24 29.335H8a1.335 1.335 0 0 1-1.334-1.334v-24A1.335 1.335 0 0 1 8 2.667zm8 20a1.335 1.335 0 0 0-.943 2.277A1.334 1.334 0 1 0 16 22.667z"/>
    </symbol>
    <symbol id="icon-work" viewBox="0 0 32 32">
      <path d="M12 17.333v4h8v-4h9.333v9.333A1.335 1.335 0 0 1 27.999 28h-24a1.335 1.335 0 0 1-1.334-1.334v-9.333h9.333zm2.667-2.666h2.667v4h-2.667v-4zm-5.334-8v-4a1.335 1.335 0 0 1 1.334-1.334h10.667a1.335 1.335 0 0 1 1.334 1.334v4h5.333a1.335 1.335 0 0 1 1.334 1.334v6.667h-9.333v-2.667h-8v2.667H2.669V8.001a1.335 1.335 0 0 1 1.334-1.334h5.333zM12 4v2.667h8V4h-8z"/>
    </symbol>
    <symbol id="icon-portfolio" viewBox="0 0 32 32">
      <path d="M31.111 7.621V8h-9.778V0h.463c.486 0 .953.158 1.297.439l7.482 6.121c.344.281.537.663.537 1.061zM20.722 10c-1.008 0-1.833-.675-1.833-1.5V0H3.611C2.598 0 1.778.672 1.778 1.5v29c0 .828.821 1.5 1.833 1.5h25.667c1.012 0 1.833-.672 1.833-1.5V10H20.722zm-9.533 15.032a.448.448 0 0 1-.288.107c-.054.001-.108-.006-.159-.021s-.097-.039-.137-.07L5.65 21.247c-.041-.032-.074-.07-.096-.112s-.034-.088-.034-.134c0-.046.012-.092.034-.134s.055-.081.096-.112l4.955-3.801a.455.455 0 0 1 .296-.091c.054.001.107.012.157.03s.094.044.131.077l1.496 1.305c.038.033.067.072.086.114a.28.28 0 0 1-.015.263.359.359 0 0 1-.099.107l-3.114 2.242 3.114 2.242c.041.03.075.066.099.107a.282.282 0 0 1 .015.263.325.325 0 0 1-.086.114l-1.496 1.305zm3.919 3.154-2.097-.498c-.105-.025-.194-.083-.246-.161s-.065-.171-.035-.257l4.693-13.227c.031-.086.102-.159.197-.202s.209-.053.314-.028l2.097.498c.052.012.101.033.143.061s.078.062.103.101a.278.278 0 0 1 .035.257l-4.693 13.227c-.015.043-.04.082-.074.117s-.076.063-.123.085a.494.494 0 0 1-.313.029zm12.282-6.94-4.955 3.801a.474.474 0 0 1-.296.091c-.054-.001-.107-.012-.157-.03s-.094-.044-.131-.077l-1.496-1.305c-.038-.033-.067-.072-.086-.114a.277.277 0 0 1 .015-.263.359.359 0 0 1 .099-.107L23.497 21l-3.114-2.242c-.041-.03-.075-.066-.099-.107a.282.282 0 0 1-.015-.263.325.325 0 0 1 .086-.114l1.496-1.305c.037-.032.081-.058.131-.077a.491.491 0 0 1 .453.061l4.955 3.801c.041.031.074.07.096.112s.034.088.034.134c0 .046-.012.092-.034.134s-.055.08-.096.112z"/>
    </symbol>
    <symbol id="icon-star" viewBox="0 0 32 32">
      <path d="m16 23.546 6.952-1.796 2.905 9.127L16 23.546zm16-11.797H19.762L16 0l-3.762 11.749H0l9.905 7.282L6.143 30.78 32 11.749z"/>
    </symbol>
    <symbol id="icon-telegram" viewBox="0 0 32 32">
      <path d="M16 2.712C8.661 2.712 2.712 8.661 2.712 16S8.661 29.288 16 29.288 29.288 23.339 29.288 16 23.339 2.712 16 2.712zm6.883 5.968c.54-.02.949.469.73 1.347L20.98 22.435c-.184.882-.717 1.093-1.455.686l-4.011-2.964-1.928 1.875c-.223.218-.401.401-.803.401-.52 0-.431-.197-.611-.692l-1.476-4.523-3.856-1.204c-.857-.262-.863-.851.192-1.274l15.462-5.964c.132-.06.264-.092.389-.096zm-2.452 2.639a.858.858 0 0 0-.437.139l-8.692 5.484 1.464 4.491.29-3.091 7.443-6.715c.204-.181.125-.304-.068-.307z"/>
    </symbol>
    <symbol id="icon-whatsapp" viewBox="0 0 32 32">
      <path d="M32 15.588c0 8.609-7.033 15.587-15.71 15.587-2.754 0-5.34-.704-7.592-1.938L.001 31.999l2.835-8.365a15.426 15.426 0 0 1-2.253-8.047C.584 6.978 7.615 0 16.292 0 24.968.002 32 6.98 32 15.588zM16.289 2.486c-7.282 0-13.206 5.879-13.206 13.106 0 2.867.935 5.522 2.516 7.682L3.95 28.14l5.073-1.612a13.205 13.205 0 0 0 7.266 2.166c7.282 0 13.208-5.878 13.208-13.105.002-7.224-5.925-13.103-13.208-13.103zm7.934 16.693c-.098-.158-.355-.254-.739-.446-.383-.192-2.279-1.115-2.631-1.241-.355-.128-.611-.193-.868.19-.254.383-.992 1.243-1.219 1.499-.224.256-.449.288-.834.099-.385-.194-1.627-.595-3.098-1.896-1.145-1.014-1.918-2.263-2.141-2.646-.226-.382-.023-.588.168-.778.172-.172.385-.447.578-.671.193-.222.257-.38.385-.635.126-.256.063-.478-.032-.671-.096-.192-.865-2.07-1.187-2.835-.32-.764-.641-.638-.866-.638-.224 0-.481-.031-.738-.031s-.674.093-1.026.476-1.347 1.306-1.347 3.187c0 1.882 1.378 3.697 1.571 3.952.194.254 2.665 4.239 6.579 5.768 3.916 1.529 3.916 1.018 4.622.954.707-.065 2.279-.923 2.598-1.815.321-.895.321-1.662.224-1.822z"/>
    </symbol>
		<symbol id="icon-mobile2" viewBox="0 0 32 32">
			<path d="M23 0h-14c-1.65 0-3 1.35-3 3v26c0 1.65 1.35 3 3 3h14c1.65 0 3-1.35 3-3v-26c0-1.65-1.35-3-3-3zM12 1.5h8v1h-8v-1zM16 30c-1.105 0-2-0.895-2-2s0.895-2 2-2 2 0.895 2 2-0.895 2-2 2zM24 24h-16v-20h16v20z"></path>
		</symbol>
		<symbol id="icon-skype" viewBox="0 0 32 32">
			<path d="M13.3 1.169c-0.050-0.031-0.106-0.056-0.156-0.081-0.056 0.012-0.106 0.019-0.162 0.031l0.319 0.050z"></path>
			<path d="M1.15 13.156c-0.012 0.056-0.019 0.113-0.025 0.162 0.031 0.050 0.050 0.1 0.081 0.15l-0.056-0.313z"></path>
			<path d="M30.837 18.831c0.012-0.056 0.019-0.113 0.031-0.169-0.031-0.050-0.050-0.1-0.081-0.15l0.050 0.319z"></path>
			<path d="M18.5 30.719c0.050 0.031 0.106 0.056 0.156 0.081 0.056-0.012 0.113-0.019 0.169-0.025l-0.325-0.056z"></path>
			<path d="M30.869 18.663c-0.012 0.056-0.019 0.113-0.031 0.169l-0.056-0.325c0.031 0.056 0.056 0.106 0.087 0.156 0.163-0.9 0.25-1.819 0.25-2.738 0-2.037-0.4-4.019-1.188-5.881-0.762-1.8-1.85-3.419-3.238-4.806s-3.006-2.475-4.8-3.237c-1.863-0.788-3.844-1.188-5.881-1.188-0.963 0-1.925 0.088-2.863 0.269 0 0-0.006 0-0.006 0 0.050 0.025 0.106 0.050 0.156 0.081l-0.319-0.050c0.056-0.012 0.106-0.019 0.162-0.031-1.287-0.681-2.731-1.050-4.194-1.050-2.388 0-4.638 0.931-6.325 2.619s-2.619 3.937-2.619 6.325c0 1.519 0.394 3.019 1.125 4.338 0.012-0.056 0.019-0.113 0.025-0.162l0.056 0.319c-0.031-0.050-0.056-0.1-0.081-0.15-0.15 0.856-0.225 1.731-0.225 2.606 0 2.038 0.4 4.019 1.188 5.881 0.763 1.8 1.85 3.413 3.237 4.8s3.006 2.475 4.806 3.238c1.863 0.788 3.844 1.188 5.881 1.188 0.887 0 1.775-0.081 2.644-0.238-0.050-0.031-0.1-0.056-0.156-0.081l0.325 0.056c-0.056 0.012-0.113 0.019-0.169 0.025 1.337 0.756 2.856 1.163 4.4 1.163 2.387 0 4.637-0.931 6.325-2.619s2.619-3.938 2.619-6.325c-0.006-1.519-0.4-3.019-1.137-4.35zM16.069 25.181c-5.369 0-7.769-2.637-7.769-4.619 0-1.012 0.75-1.725 1.781-1.725 2.3 0 1.7 3.3 5.988 3.3 2.194 0 3.406-1.194 3.406-2.413 0-0.731-0.363-1.544-1.806-1.9l-4.775-1.194c-3.844-0.963-4.544-3.044-4.544-5 0-4.056 3.819-5.581 7.406-5.581 3.306 0 7.2 1.825 7.2 4.263 0 1.044-0.906 1.65-1.938 1.65-1.962 0-1.6-2.713-5.55-2.713-1.963 0-3.044 0.887-3.044 2.156s1.55 1.675 2.894 1.981l3.538 0.787c3.869 0.863 4.85 3.125 4.85 5.25 0 3.294-2.531 5.756-7.637 5.756z"></path>
		</symbol>
		<symbol id="icon-download" viewBox="0 0 26 32">
			<path d="M4.392 24.381h17.569v-8.784h2.196v10.039c0 0.333-0.116 0.652-0.322 0.887s-0.485 0.367-0.776 0.367h-19.765c-0.291 0-0.571-0.132-0.776-0.367s-0.322-0.555-0.322-0.887v-10.039h2.196v8.784zM15.372 11.832h5.49l-7.686 8.784-7.686-8.784h5.49v-7.529h4.392v7.529z"></path>
		</symbol>
  </defs>
</svg>
